<mxfile host="Electron" modified="2023-11-13T18:27:18.056Z" agent="Mozilla/5.0 (Windows NT 10.0; Win64; x64) AppleWebKit/537.36 (KHTML, like Gecko) draw.io/22.0.3 Chrome/114.0.5735.289 Electron/25.8.4 Safari/537.36" etag="ar4RpX54QD5qpa3u64ZI" version="22.0.3" type="device">
  <diagram id="lLCxyO07bRN_uIhbSZaW" name="alg">
    <mxGraphModel dx="1102" dy="966" grid="1" gridSize="10" guides="1" tooltips="1" connect="1" arrows="1" fold="1" page="1" pageScale="1" pageWidth="827" pageHeight="1169" math="0" shadow="0">
      <root>
        <mxCell id="0" />
        <mxCell id="1" parent="0" />
        <mxCell id="c6T8mYWIUjRT8G5Ujx9O-12" style="edgeStyle=orthogonalEdgeStyle;rounded=0;orthogonalLoop=1;jettySize=auto;html=1;strokeWidth=1;entryX=0.503;entryY=0.237;entryDx=0;entryDy=0;entryPerimeter=0;" parent="1" source="c6T8mYWIUjRT8G5Ujx9O-2" target="LMFxY1xCT0qnPY-nqajU-16" edge="1">
          <mxGeometry relative="1" as="geometry">
            <mxPoint x="220" y="110" as="targetPoint" />
          </mxGeometry>
        </mxCell>
        <mxCell id="c6T8mYWIUjRT8G5Ujx9O-2" value="Начало" style="rounded=1;whiteSpace=wrap;html=1;arcSize=50;strokeWidth=1;" parent="1" vertex="1">
          <mxGeometry x="160" y="40" width="120" height="40" as="geometry" />
        </mxCell>
        <mxCell id="LMFxY1xCT0qnPY-nqajU-19" style="edgeStyle=orthogonalEdgeStyle;rounded=0;orthogonalLoop=1;jettySize=auto;html=1;entryX=0.5;entryY=0;entryDx=0;entryDy=0;" edge="1" parent="1" source="c6T8mYWIUjRT8G5Ujx9O-6" target="LMFxY1xCT0qnPY-nqajU-12">
          <mxGeometry relative="1" as="geometry" />
        </mxCell>
        <mxCell id="c6T8mYWIUjRT8G5Ujx9O-6" value="y := x^2" style="rounded=0;whiteSpace=wrap;html=1;strokeWidth=1;" parent="1" vertex="1">
          <mxGeometry x="80" y="440" width="120" height="40" as="geometry" />
        </mxCell>
        <mxCell id="c6T8mYWIUjRT8G5Ujx9O-9" value="Конец" style="rounded=1;whiteSpace=wrap;html=1;arcSize=50;strokeWidth=1;" parent="1" vertex="1">
          <mxGeometry x="320" y="620" width="120" height="40" as="geometry" />
        </mxCell>
        <mxCell id="LMFxY1xCT0qnPY-nqajU-3" style="edgeStyle=orthogonalEdgeStyle;rounded=0;orthogonalLoop=1;jettySize=auto;html=1;entryX=0.5;entryY=0;entryDx=0;entryDy=0;" edge="1" parent="1" source="7ganVP7uvITa_jIiw2CY-1" target="LMFxY1xCT0qnPY-nqajU-18">
          <mxGeometry relative="1" as="geometry" />
        </mxCell>
        <mxCell id="LMFxY1xCT0qnPY-nqajU-4" value="Нет" style="edgeLabel;html=1;align=center;verticalAlign=middle;resizable=0;points=[];" vertex="1" connectable="0" parent="LMFxY1xCT0qnPY-nqajU-3">
          <mxGeometry x="-0.6024" y="1" relative="1" as="geometry">
            <mxPoint x="-60" y="-9" as="offset" />
          </mxGeometry>
        </mxCell>
        <mxCell id="LMFxY1xCT0qnPY-nqajU-6" style="edgeStyle=orthogonalEdgeStyle;rounded=0;orthogonalLoop=1;jettySize=auto;html=1;" edge="1" parent="1" source="7ganVP7uvITa_jIiw2CY-1" target="LMFxY1xCT0qnPY-nqajU-5">
          <mxGeometry relative="1" as="geometry" />
        </mxCell>
        <mxCell id="LMFxY1xCT0qnPY-nqajU-15" value="Да" style="edgeLabel;html=1;align=center;verticalAlign=middle;resizable=0;points=[];" vertex="1" connectable="0" parent="LMFxY1xCT0qnPY-nqajU-6">
          <mxGeometry x="0.264" y="-1" relative="1" as="geometry">
            <mxPoint x="21" as="offset" />
          </mxGeometry>
        </mxCell>
        <mxCell id="7ganVP7uvITa_jIiw2CY-1" value="x &amp;lt; b" style="strokeWidth=1;html=1;shape=mxgraph.flowchart.decision;whiteSpace=wrap;" parent="1" vertex="1">
          <mxGeometry x="160" y="270" width="120" height="60" as="geometry" />
        </mxCell>
        <mxCell id="LMFxY1xCT0qnPY-nqajU-20" value="" style="edgeStyle=orthogonalEdgeStyle;rounded=0;orthogonalLoop=1;jettySize=auto;html=1;" edge="1" parent="1" source="7ganVP7uvITa_jIiw2CY-3" target="LMFxY1xCT0qnPY-nqajU-12">
          <mxGeometry relative="1" as="geometry" />
        </mxCell>
        <mxCell id="7ganVP7uvITa_jIiw2CY-3" value="y := x^3" style="rounded=0;whiteSpace=wrap;html=1;strokeWidth=1;" parent="1" vertex="1">
          <mxGeometry x="240" y="440" width="120" height="40" as="geometry" />
        </mxCell>
        <mxCell id="LMFxY1xCT0qnPY-nqajU-11" style="edgeStyle=orthogonalEdgeStyle;rounded=0;orthogonalLoop=1;jettySize=auto;html=1;" edge="1" parent="1" source="LMFxY1xCT0qnPY-nqajU-1" target="7ganVP7uvITa_jIiw2CY-1">
          <mxGeometry relative="1" as="geometry" />
        </mxCell>
        <mxCell id="LMFxY1xCT0qnPY-nqajU-1" value="x := a&lt;br&gt;sum := 0" style="rounded=0;whiteSpace=wrap;html=1;strokeWidth=1;" vertex="1" parent="1">
          <mxGeometry x="160" y="190" width="120" height="40" as="geometry" />
        </mxCell>
        <mxCell id="LMFxY1xCT0qnPY-nqajU-7" style="edgeStyle=orthogonalEdgeStyle;rounded=0;orthogonalLoop=1;jettySize=auto;html=1;entryX=0.5;entryY=0;entryDx=0;entryDy=0;exitX=1;exitY=0.5;exitDx=0;exitDy=0;exitPerimeter=0;" edge="1" parent="1" source="LMFxY1xCT0qnPY-nqajU-5" target="7ganVP7uvITa_jIiw2CY-3">
          <mxGeometry relative="1" as="geometry" />
        </mxCell>
        <mxCell id="LMFxY1xCT0qnPY-nqajU-10" value="Нет" style="edgeLabel;html=1;align=center;verticalAlign=middle;resizable=0;points=[];" vertex="1" connectable="0" parent="LMFxY1xCT0qnPY-nqajU-7">
          <mxGeometry x="-0.74" y="-2" relative="1" as="geometry">
            <mxPoint y="-12" as="offset" />
          </mxGeometry>
        </mxCell>
        <mxCell id="LMFxY1xCT0qnPY-nqajU-8" style="edgeStyle=orthogonalEdgeStyle;rounded=0;orthogonalLoop=1;jettySize=auto;html=1;exitX=0;exitY=0.5;exitDx=0;exitDy=0;exitPerimeter=0;" edge="1" parent="1" source="LMFxY1xCT0qnPY-nqajU-5" target="c6T8mYWIUjRT8G5Ujx9O-6">
          <mxGeometry relative="1" as="geometry" />
        </mxCell>
        <mxCell id="LMFxY1xCT0qnPY-nqajU-9" value="Да" style="edgeLabel;html=1;align=center;verticalAlign=middle;resizable=0;points=[];" vertex="1" connectable="0" parent="LMFxY1xCT0qnPY-nqajU-8">
          <mxGeometry x="0.015" y="1" relative="1" as="geometry">
            <mxPoint x="9" y="-31" as="offset" />
          </mxGeometry>
        </mxCell>
        <mxCell id="LMFxY1xCT0qnPY-nqajU-5" value="x &amp;gt; 0" style="strokeWidth=1;html=1;shape=mxgraph.flowchart.decision;whiteSpace=wrap;" vertex="1" parent="1">
          <mxGeometry x="160" y="360" width="120" height="60" as="geometry" />
        </mxCell>
        <mxCell id="LMFxY1xCT0qnPY-nqajU-14" style="edgeStyle=orthogonalEdgeStyle;rounded=0;orthogonalLoop=1;jettySize=auto;html=1;exitX=0.5;exitY=1;exitDx=0;exitDy=0;" edge="1" parent="1" source="LMFxY1xCT0qnPY-nqajU-12">
          <mxGeometry relative="1" as="geometry">
            <mxPoint x="220" y="610" as="sourcePoint" />
            <mxPoint x="220" y="250" as="targetPoint" />
            <Array as="points">
              <mxPoint x="220" y="630" />
              <mxPoint x="50" y="630" />
              <mxPoint x="50" y="250" />
            </Array>
          </mxGeometry>
        </mxCell>
        <mxCell id="LMFxY1xCT0qnPY-nqajU-12" value="sum := sum + y&lt;br&gt;x := x + h" style="rounded=0;whiteSpace=wrap;html=1;strokeWidth=1;" vertex="1" parent="1">
          <mxGeometry x="160" y="550" width="120" height="50" as="geometry" />
        </mxCell>
        <mxCell id="LMFxY1xCT0qnPY-nqajU-17" style="edgeStyle=orthogonalEdgeStyle;rounded=0;orthogonalLoop=1;jettySize=auto;html=1;" edge="1" parent="1" source="LMFxY1xCT0qnPY-nqajU-16" target="LMFxY1xCT0qnPY-nqajU-1">
          <mxGeometry relative="1" as="geometry" />
        </mxCell>
        <mxCell id="LMFxY1xCT0qnPY-nqajU-16" value="a, b, h" style="html=1;strokeWidth=1;shape=manualInput;whiteSpace=wrap;rounded=1;size=26;arcSize=11;" vertex="1" parent="1">
          <mxGeometry x="160" y="100" width="120" height="60" as="geometry" />
        </mxCell>
        <mxCell id="LMFxY1xCT0qnPY-nqajU-21" value="" style="edgeStyle=orthogonalEdgeStyle;rounded=0;orthogonalLoop=1;jettySize=auto;html=1;" edge="1" parent="1" source="LMFxY1xCT0qnPY-nqajU-18" target="c6T8mYWIUjRT8G5Ujx9O-9">
          <mxGeometry relative="1" as="geometry" />
        </mxCell>
        <mxCell id="LMFxY1xCT0qnPY-nqajU-18" value="sum" style="shape=parallelogram;perimeter=parallelogramPerimeter;whiteSpace=wrap;html=1;fixedSize=1;strokeWidth=1;" vertex="1" parent="1">
          <mxGeometry x="320" y="550" width="120" height="40" as="geometry" />
        </mxCell>
      </root>
    </mxGraphModel>
  </diagram>
</mxfile>
